<?xml version="1.0" encoding="utf-8"?>
<!-- Svg Vector Icons : http://www.onlinewebfonts.com/icon -->
<!DOCTYPE svg PUBLIC "-//W3C//DTD SVG 1.1//EN" "http://www.w3.org/Graphics/SVG/1.1/DTD/svg11.dtd">
<svg version="1.1" xmlns="http://www.w3.org/2000/svg" xmlns:xlink="http://www.w3.org/1999/xlink" x="0px" y="0px" viewBox="0 0 1000 1000" enable-background="new 0 0 1000 1000" xml:space="preserve">
<metadata> Svg Vector Icons : http://www.onlinewebfonts.com/icon </metadata>
<g><g transform="translate(0.000000,512.000000) scale(0.100000,-0.100000)"><path d="M3981.2,5000.9c-348.6-51.7-651.3-145.6-961.6-300.7c-858.2-425.2-1455.8-1210.6-1647.4-2168.4c-63.2-314.2-63.2-831.4,1.9-1143.6c197.3-957.8,772-1722.1,1620.6-2155c93.9-47.9,189.6-86.2,212.6-86.2c172.4,0,277.8,206.9,168.6,327.6c-19.2,21.1-114.9,80.4-214.5,132.2c-810.3,427.2-1335.2,1212.6-1419.4,2132c-44.1,473.1,42.1,938.6,256.7,1383c249,519.1,676.2,952,1187.7,1206.8c404.2,201.1,749,281.6,1197.2,281.6c450.2,0,754.7-69,1158.9-262.4c908-436.7,1486.5-1352.4,1490.3-2365.7c1.9-377.4-61.3-712.6-189.6-1019.1c-24.9-61.3-46-139.8-46-176.2c0-130.3,136-220.3,268.2-176.2c82.4,26.8,130.3,107.3,220.3,377.4c233.7,697.3,212.6,1438.6-61.3,2124.4c-381.2,953.9-1227.9,1651.2-2258.5,1858.1C4714.9,5022,4230.3,5035.4,3981.2,5000.9z"/><path d="M4293.5,2142.9c-128.3-63.2-120.7,143.7-120.7-3003.6c0-3130-7.7-2946.1,116.9-3009.4c114.9-61.3,151.3-40.2,718.3,404.2c475.1,371.6,534.5,411.8,555.5,381.2c13.4-17.2,224.1-392.7,467.4-831.4c459.7-829.4,484.6-863.9,601.5-863.9c74.7,0,1339,637.9,1388.8,701.1c21.1,28.7,40.2,78.6,40.2,111.1c0,42.1-130.3,293.1-438.7,850.5l-438.7,789.2h680h680l65.1,65.1c72.8,72.8,84.3,149.4,38.3,237.5c-44.1,80.5-4131.9,4156.8-4193.2,4179.8C4383.5,2179.3,4366.3,2179.3,4293.5,2142.9z"/></g></g>
</svg>