<svg width="14" height="19" viewBox="0 0 14 19" fill="none" xmlns="http://www.w3.org/2000/svg">
<path d="M13.8386 13.1983L11.6389 10.9484C11.6389 3.70799 7.36788 0.5 7.36788 0.5C7.36788 0.5 3.0558 3.70799 3.0558 10.9484L0.856094 13.1983C0.815103 13.2411 0.784633 13.2928 0.767098 13.3493C0.749563 13.4059 0.745445 13.4658 0.75507 13.5242L1.59845 18.6477C1.60608 18.7068 1.62861 18.7629 1.66391 18.8108C1.69921 18.8587 1.74613 18.8968 1.80024 18.9216C1.85436 18.9464 1.91388 18.957 1.97322 18.9524C2.03256 18.9478 2.08975 18.9282 2.13942 18.8954L5.21445 16.815C5.80712 17.3597 6.56954 17.6834 7.37309 17.7314C8.16423 17.6887 8.91378 17.3635 9.48546 16.815L12.5592 18.8941C12.609 18.9264 12.6661 18.9455 12.7253 18.9498C12.7844 18.9541 12.8437 18.9435 12.8977 18.9188C12.9516 18.8941 12.9984 18.8562 13.0338 18.8086C13.0692 18.761 13.092 18.7052 13.1002 18.6464L13.9474 13.5184C13.9533 13.4603 13.9466 13.4017 13.9278 13.3465C13.909 13.2913 13.8786 13.2408 13.8386 13.1983ZM7.36788 8.56494C7.07525 8.57704 6.78569 8.50131 6.53644 8.3475C6.2872 8.19368 6.08967 7.96882 5.96926 7.70183C5.84885 7.43485 5.81108 7.13794 5.86078 6.84931C5.91049 6.56067 6.04541 6.29351 6.2482 6.08218C6.45098 5.87085 6.71235 5.72502 6.99868 5.66345C7.28502 5.60187 7.58323 5.62737 7.85496 5.73666C8.12669 5.84594 8.35951 6.03403 8.52347 6.27671C8.68744 6.5194 8.77505 6.80559 8.77504 7.09847C8.77936 7.28727 8.74635 7.47506 8.6779 7.65106C8.60944 7.82706 8.5069 7.98781 8.37615 8.12407C8.2454 8.26033 8.08902 8.36942 7.91599 8.44508C7.74296 8.52074 7.55669 8.56147 7.36788 8.56494Z" fill="black"/>
</svg>
